# xmcd CD database file
#
# Track frame offsets:
#	150
#	17090
#	29840
#	45632
#	63252
#	79170
#	95932
#	113227
#	127495
#	140012
#	152295
#	164510
#	175027
#	187737
#	203652
#	216732
#	230747
#	243962
#	253072
#	262350
#	279935
#	290220
#	303380
#
# Disc length: 4188 seconds
#
# Revision: 3
# Processed by: cddbd v1.4PL0 Copyright (c) Steve Scherf et al.
# Submitted via: CDex 1.40Release
#
DISCID=67105a17
DTITLE=Various Artist - Larry's Party Rock CD2
DYEAR=1900
DGENRE=
TTITLE0=S-Express - - Theme From S-Express
TTITLE1=Suzi Quatro  - - Can The Can
TTITLE2=Cheap Trick - - I Want You To Want Me
TTITLE3=Mother's Finest - - Baby Love
TTITLE4=Laura Branigan - - Self Control
TTITLE5=Toto - - Hold The Line
TTITLE6=Girl You Know It's True
TTITLE7=Big City Nights
TTITLE8=Any Way You Want It
TTITLE9=Mit Pfefferminz bin ich dein Prinz
TTITLE10=K nig von Deutschland
TTITLE11=Do Wah Diddy Diddy
TTITLE12=Na Na Hey Hey
TTITLE13=The Final Countdown
TTITLE14=Urgent
TTITLE15=Lambada
TTITLE16=Pump ab das Bier
TTITLE17=Cold As Ice
TTITLE18=You Really Got Me
TTITLE19=My Oh My
TTITLE20=Black Night
TTITLE21=Born To Be Alive
TTITLE22=Bommerlunder
EXTD=
EXTT0=
EXTT1=
EXTT2=
EXTT3=
EXTT4=
EXTT5=
EXTT6=
EXTT7=
EXTT8=
EXTT9=
EXTT10=
EXTT11=
EXTT12=
EXTT13=
EXTT14=
EXTT15=
EXTT16=
EXTT17=
EXTT18=
EXTT19=
EXTT20=
EXTT21=
EXTT22=
PLAYORDER=
